<svg xmlns="http://www.w3.org/2000/svg" xmlns:xlink="http://www.w3.org/1999/xlink" width="38" height="38" viewBox="0 0 38 38">
  <defs>
    <clipPath id="clip-path">
      <circle id="Frame" cx="19" cy="19" r="19" transform="translate(16.002 16.119)" fill="#efefef"/>
    </clipPath>
  </defs>
  <g id="Icon" transform="translate(-16.002 -16.119)" clip-path="url(#clip-path)">
    <g id="Icon-2" data-name="Icon" transform="translate(16 16.117)">
      <path id="Caminho" d="M38.032,19.182a19,19,0,1,1-19-19,19,19,0,0,1,19,19" transform="translate(-0.026 -0.179)" fill="#ffa700" fill-rule="evenodd"/>
      <path id="Caminho-2" data-name="Caminho" d="M23.184,24.373a2.088,2.088,0,0,1-2.6,1.405l-5.351-1.594,1.192-4,5.351,1.594h0a2.09,2.09,0,0,1,1.405,2.6m1.8-8.2a2.088,2.088,0,0,1-2.432,3h0l-5.351-1.594,1.192-4,5.351,1.594a2.074,2.074,0,0,1,1.241,1.008m2.4-1.3a4.781,4.781,0,0,0-2.859-2.322l-.708-.211.991-3.328-2.543-.757-.991,3.328L19.1,10.938l.991-3.328-.609-.181-2.468-.735L16.062,9.9l-3.008-.9-.849,2.85,3.008.9-3.09,10.375-3.008-.9-.849,2.851,3.008.9-.806,2.708.609.181,2.468.735.842-2.828,2.176.648-.842,2.828L18.254,31l.842-2.828.713.212a4.835,4.835,0,0,0,1.38.2,4.808,4.808,0,0,0,4.187-7.163,4.807,4.807,0,0,0,2.008-6.553" transform="translate(0.433 0.184)" fill="#fff" fill-rule="evenodd"/>
    </g>
  </g>
</svg>
