<svg width="90" height="24" viewBox="0 0 90 24" fill="none" xmlns="http://www.w3.org/2000/svg">
<path fillRule="evenodd" clipRule="evenodd" d="M89.9833 12.4789V19.8528C89.9833 20.1757 89.7215 20.4375 89.3986 20.4375H87.2003C86.8774 20.4375 86.6156 20.1757 86.6156 19.8528V18.6929C85.246 19.71 83.5558 20.3106 81.727 20.3106C77.158 20.3106 73.454 16.5614 73.454 11.9366C73.454 7.31169 77.158 3.5625 81.727 3.5625C83.5558 3.5625 85.246 4.16315 86.6156 5.18019V4.14717C86.6156 3.82427 86.8774 3.5625 87.2003 3.5625H89.3986C89.7215 3.5625 89.9833 3.82427 89.9833 4.14717V11.3999C89.9944 11.5774 90 11.7563 90 11.9366C90 12.117 89.9944 12.296 89.9833 12.4736L89.9833 12.4789ZM67.5209 19.6815C67.5209 19.9122 67.3339 20.0992 67.1033 20.0992H64.5123C64.2817 20.0992 64.0947 19.9122 64.0947 19.6815V4.27618C64.0947 4.04553 64.2817 3.85855 64.5123 3.85855H67.1033C67.3339 3.85855 67.5209 4.04553 67.5209 4.27618V5.14936C68.794 4.21627 70.3399 3.64118 72.0146 3.56999C72.0193 3.56979 72.0241 3.56969 72.0289 3.56969C72.216 3.56969 72.3677 3.72134 72.3677 3.90842V6.76407C72.3677 6.9096 72.2539 7.02969 72.1085 7.03744C69.5522 7.17376 67.5209 9.31504 67.5209 11.9366V19.6815ZM43.6331 5.55771C43.635 5.55928 43.6368 5.56087 43.6385 5.56247C43.7601 5.6725 43.7695 5.86024 43.6594 5.98181L41.8472 7.98432C41.6838 8.16491 41.4086 8.1886 41.2167 8.03859C41.2123 8.03514 41.208 8.0318 41.2038 8.02856C40.3703 7.3863 39.3508 7.03054 38.273 7.03054C35.5962 7.03054 33.4262 9.22704 33.4262 11.9366C33.4262 14.6461 35.5962 16.8426 38.273 16.8426C39.2336 16.8426 40.1483 16.5605 40.9285 16.0416L40.9322 16.0392C41.1278 15.9086 41.3911 15.9511 41.5356 16.1368L43.1505 18.2123C43.1533 18.2159 43.1561 18.2196 43.1588 18.2233C43.2826 18.3948 43.244 18.6342 43.0725 18.7581C41.6847 19.7601 40.0184 20.3106 38.273 20.3106C33.7039 20.3106 30 16.5614 30 11.9366C30 7.31169 33.7039 3.5625 38.273 3.5625C40.2653 3.5625 42.1509 4.28023 43.6331 5.55771ZM53.3148 20.3106C48.7457 20.3106 45.0418 16.5614 45.0418 11.9366C45.0418 7.31169 48.7457 3.5625 53.3148 3.5625C57.8838 3.5625 61.5877 7.31169 61.5877 11.9366C61.5877 16.5614 57.8838 20.3106 53.3148 20.3106ZM53.3148 16.8426C55.9916 16.8426 58.1616 14.6461 58.1616 11.9366C58.1616 9.22704 55.9916 7.03054 53.3148 7.03054C50.638 7.03054 48.468 9.22704 48.468 11.9366C48.468 14.6461 50.638 16.8426 53.3148 16.8426ZM81.727 16.8426C84.4038 16.8426 86.5738 14.6461 86.5738 11.9366C86.5738 9.22704 84.4038 7.03054 81.727 7.03054C79.0502 7.03054 76.8802 9.22704 76.8802 11.9366C76.8802 14.6461 79.0502 16.8426 81.727 16.8426Z" fill="#202020"/>
<path fillRule="evenodd" clipRule="evenodd" d="M10.583 0.750065C10.1485 0.755372 9.62432 0.824197 9.35897 0.869974C7.77041 1.14365 6.238 1.75905 4.90409 2.67278C2.87417 4.06314 1.31238 6.13956 0.548299 8.47992C-0.35062 11.2336 -0.135242 14.3192 1.12828 16.9118C2.32863 19.3749 4.45093 21.3691 6.98348 22.4101C9.11372 23.2857 11.4979 23.4795 13.7297 22.9782C16.4464 22.3679 18.8793 20.7218 20.469 18.4644C21.66 16.7731 22.3655 14.7497 22.4989 12.6837C22.5094 12.506 22.4463 12.3316 22.3244 12.2018C22.2025 12.0721 22.0326 11.9982 21.8546 11.9978L21.7378 11.9975C20.9505 11.9957 19.7521 11.9929 19.0286 11.9928C18.6917 11.992 18.4108 12.2509 18.384 12.587C18.3517 12.9713 18.289 13.3522 18.1952 13.7261C17.7609 15.4583 16.6462 17.0111 15.1447 17.9875C13.6164 18.9812 11.7109 19.3507 9.92381 19.0134C8.1398 18.6767 6.52549 17.637 5.46748 16.1808C4.58521 14.9666 4.10217 13.4665 4.10452 11.9682C4.10761 10.0208 4.93929 8.10817 6.34758 6.77662C7.52021 5.66797 9.06429 4.9814 10.6777 4.84639C11.0126 4.81823 11.2702 4.53809 11.2705 4.20175L11.2707 4.00542C11.2712 3.2419 11.2721 2.1144 11.2717 1.39555C11.2719 1.21665 11.1979 1.04559 11.0673 0.923289C10.9368 0.800906 10.7623 0.747874 10.583 0.750065ZM22.4856 4.37962C22.4856 2.38987 20.8714 0.774413 18.8832 0.774413C16.895 0.774413 15.2808 2.38987 15.2808 4.37962C15.2808 6.36944 16.895 7.9849 18.8832 7.9849C20.8714 7.9849 22.4856 6.36944 22.4856 4.37962Z" fill="#FE3E6D"/>
</svg>
