<svg xmlns="http://www.w3.org/2000/svg" width="69.247" height="53.411" viewBox="0 0 69.247 53.411">
  <g id="Group_25" data-name="Group 25" transform="translate(-1740.013 -293.656)">
    <g id="Group_24" data-name="Group 24" transform="translate(1740.013 293.656)">
      <path id="Path_73" data-name="Path 73" d="M1936.282,318.813q1-5.749,2-11.5c.74-4.208,1.512-8.411,2.219-12.624.133-.792.4-1.05,1.228-1.034,3.52.07,7.041.081,10.562.063.689,0,.752.237.652.805q-2.253,12.7-4.484,25.407c-1.435,8.146-2.868,16.293-4.329,24.594h6.542l-.007,2.459c-2.922,0-5.843-.017-8.764.011-.617.006-.773-.1-.655-.766.929-5.2,1.8-10.4,2.711-15.6,1.045-5.941,2.125-11.875,3.182-17.814.947-5.322,1.878-10.647,2.837-15.966.1-.551-.085-.631-.574-.625-1.939.024-3.879.045-5.816-.009-.646-.018-.821.233-.917.789q-1.064,6.157-2.164,12.307c-.7,3.966-1.4,7.934-2.138,11.892a7.732,7.732,0,0,1-1.61,3.7,1.827,1.827,0,0,1-.181-1.026c0-1.44.009-2.88,0-4.319C1936.566,319.286,1936.721,318.924,1936.282,318.813Z" transform="translate(-1915.363 -293.656)" fill="#29a384"/>
      <path id="Path_74" data-name="Path 74" d="M2203.522,401.417a19.735,19.735,0,0,0,15.362-11.121,15.016,15.016,0,0,0,1.094-11.7,12.372,12.372,0,0,0-11.131-8.353c-.843-.04-1.689-.02-2.533-.027q0-1.213,0-2.425a15.376,15.376,0,0,1,9.936,2.234,14.251,14.251,0,0,1,6.622,9.639,18.334,18.334,0,0,1-2,12.322,21.869,21.869,0,0,1-5.82,7.049,20.944,20.944,0,0,1-11.682,4.862A8.264,8.264,0,0,1,2203.522,401.417Z" transform="translate(-2153.965 -359.813)" fill="#0d9ad9"/>
      <path id="Path_75" data-name="Path 75" d="M1748.274,401.233a10.454,10.454,0,0,1-8.229-9.659c-.192-2.548.506-4.964.929-7.417.968-5.624,2.025-11.234,3.018-16.854.1-.55.235-.787.852-.771,2.016.053,4.034.04,6.051.052v2.437c-1.337,0-2.674.026-4.01,0-.469-.01-.667.116-.75.6-1.1,6.409-2.25,12.81-3.328,19.223-.788,4.685,1.553,8.562,5.727,9.838.048.015.085.064.127.1-.369.145-.393.452-.388.786C1748.282,400.121,1748.275,400.677,1748.274,401.233Z" transform="translate(-1740.013 -358.763)" fill="#41ab38"/>
      <path id="Path_76" data-name="Path 76" d="M2126.589,368.546q0,1.213,0,2.425a20.331,20.331,0,0,0-7.2,2.263,1.194,1.194,0,0,0-.717.969c-.553,3.35-1.147,6.692-1.744,10.034a1.148,1.148,0,0,0,.393,1.146c1.087,1.029,2.162,2.073,3.2,3.15.389.4.609.432,1.02.011,1.483-1.516,3.011-2.988,4.522-4.476.431.18.325.564.364.908.078.686-.217,1.4.177,2.062-.125.453-.528.68-.828.983-1.4,1.416-2.831,2.794-4.205,4.231-.439.459-.664.409-1.081-.017q-2.944-3.008-5.954-5.95a1.175,1.175,0,0,1-.406-1.146c.739-4.23,1.461-8.462,2.2-12.692a.922.922,0,0,1,.473-.786,25.559,25.559,0,0,1,8.565-3.049C2125.773,368.563,2126.183,368.567,2126.589,368.546Z" transform="translate(-2074.24 -360.564)" fill="#1c9fa5"/>
      <path id="Path_77" data-name="Path 77" d="M1835.17,369.314v-2.437c1.555,0,3.11.009,4.664-.017.471-.008.579.085.489.587q-1.659,9.191-3.262,18.392a7.3,7.3,0,0,0-.131,2.673,2.192,2.192,0,0,0,2.3,2.083c3.1.235,5.06-1.4,5.612-4.647.1-.582.24-1.156.362-1.734.439.112.284.473.286.741.014,1.44.008,2.879.005,4.319a1.828,1.828,0,0,0,.181,1.026,7.343,7.343,0,0,1-8.859,2.206,4.739,4.739,0,0,1-2.466-4.324,25.631,25.631,0,0,1,.747-5.739q1.066-6.157,2.192-12.3c.1-.57.042-.877-.653-.8A11.088,11.088,0,0,1,1835.17,369.314Z" transform="translate(-1824.288 -359.057)" fill="#39a94d"/>
      <path id="Path_78" data-name="Path 78" d="M2085.476,651.446a8.264,8.264,0,0,0-.15,2.485,16.5,16.5,0,0,1-9.115-1.653c-.293-.148-.648-.482-.711.21-.229,2.52-.847,4.976-1.232,7.471-.137.886-.317,1.765-.453,2.651-.067.436-.212.695-.727.635a15.714,15.714,0,0,1-1.869-.074q0-1.229.008-2.459c.526-.049.428-.492.484-.807.725-4.042,1.438-8.086,2.191-12.342A14.325,14.325,0,0,0,2085.476,651.446Z" transform="translate(-2035.919 -609.842)" fill="#1c9fa5"/>
      <path id="Path_79" data-name="Path 79" d="M1816.566,661.676c0-.556.007-1.112,0-1.668-.005-.334.019-.642.388-.787,4.943,1.229,9.734.242,14.613-1.078-.335,1.831-.65,3.563-.968,5.3-.147.8-.3,1.606-.45,2.408-.19.985-.865,1.528-1.694,1.373a1.44,1.44,0,0,1-1.111-1.858c.17-.965.326-1.934.533-2.891.14-.647.045-.851-.7-.709a25.81,25.81,0,0,1-8.057.434A10.708,10.708,0,0,1,1816.566,661.676Z" transform="translate(-1808.405 -619.295)" fill="#39a94d"/>
      <path id="Path_80" data-name="Path 80" d="M2226.822,484.1c-.394-.657-.1-1.376-.177-2.062-.039-.344.067-.728-.365-.908,1.225-1.241,2.456-2.476,3.67-3.727.261-.269.43-.3.716-.014q2.324,2.362,4.688,4.684c.275.271.283.424.012.718-1.439,1.568-1.43,1.577-2.916.094-.541-.54-1.109-1.055-1.612-1.627-.367-.417-.589-.45-1.007-.023A24.076,24.076,0,0,1,2226.822,484.1Z" transform="translate(-2174.452 -457.623)" fill="#0d9ad9"/>
    </g>
    <path id="Path_81" data-name="Path 81" d="M2187.964,417.411c-.392.432-.661.739-.941,1.035-.926.984-.927.983-1.855.055-1.894-1.893-3.8-3.776-5.673-5.689-.387-.4-.589-.432-1-.009-2.469,2.516-4.981,4.99-7.461,7.5-.351.354-.579.477-.948.028-.4-.483-1.194-.886-1.223-1.36-.034-.558.781-.963,1.236-1.423,2.787-2.816,5.595-5.612,8.373-8.437.391-.4.6-.427,1.011-.014,2.647,2.685,5.322,5.344,7.994,8.006A2.756,2.756,0,0,0,2187.964,417.411Z" transform="translate(-383.136 -102.865)" fill="#fcfcfc"/>
    <path id="Path_82" data-name="Path 82" d="M2102.746,557.388c.726.794,1.308,1.459,1.919,2.094,1.606,1.667,3.24,3.3,4.826,4.991.411.437.621.4,1.016-.013,2.43-2.538,4.9-5.033,7.324-7.579.442-.464.647-.42,1.056.017,1.307,1.4,1.326,1.378.019,2.722-2.8,2.878-5.611,5.743-8.385,8.647-.452.473-.664.421-1.082-.017q-3.379-3.54-6.823-7.015a1.141,1.141,0,0,1-.349-1.123C2102.42,559.286,2102.558,558.458,2102.746,557.388Z" transform="translate(-323.618 -234.874)" fill="#fcfcfc"/>
  </g>
</svg>
